<svg xmlns="http://www.w3.org/2000/svg" width="1200" height="700" viewBox="0 0 1200 700" role="img" aria-label="Boiler repair website redesign placeholder">
  <defs>
    <linearGradient id="bg1" x1="0" y1="0" x2="1" y2="1">
      <stop offset="0%" stop-color="#f7fbff"/>
      <stop offset="100%" stop-color="#e8f1ff"/>
    </linearGradient>
  </defs>
  <rect width="1200" height="700" fill="url(#bg1)"/>
  <rect x="40" y="40" width="1120" height="620" rx="18" fill="#ffffff" stroke="#cfe0f5"/>
  <rect x="40" y="40" width="1120" height="46" rx="18" fill="#eef4fb"/>
  <circle cx="70" cy="63" r="6" fill="#9fb9dc"/>
  <circle cx="90" cy="63" r="6" fill="#9fb9dc"/>
  <circle cx="110" cy="63" r="6" fill="#9fb9dc"/>
  <text x="70" y="125" font-family="Segoe UI, Arial, sans-serif" font-size="20" fill="#13345e" font-weight="700">Before</text>
  <rect x="70" y="145" width="500" height="220" rx="12" fill="#f3f6fa" stroke="#d7e2f0"/>
  <rect x="92" y="170" width="350" height="16" rx="8" fill="#d3deed"/>
  <rect x="92" y="196" width="430" height="12" rx="6" fill="#dce6f3"/>
  <rect x="92" y="218" width="410" height="12" rx="6" fill="#dce6f3"/>
  <rect x="92" y="240" width="390" height="12" rx="6" fill="#dce6f3"/>
  <rect x="92" y="287" width="120" height="26" rx="6" fill="#b9c9de"/>
  <text x="630" y="125" font-family="Segoe UI, Arial, sans-serif" font-size="20" fill="#0b4fae" font-weight="700">After</text>
  <rect x="630" y="145" width="500" height="220" rx="12" fill="#eef5ff" stroke="#bcd2f4"/>
  <rect x="652" y="168" width="270" height="20" rx="10" fill="#0b5ed7"/>
  <rect x="652" y="198" width="430" height="12" rx="6" fill="#bfd2ee"/>
  <rect x="652" y="221" width="390" height="12" rx="6" fill="#c9daf1"/>
  <rect x="652" y="248" width="170" height="34" rx="8" fill="#0b5ed7"/>
  <text x="676" y="270" font-family="Segoe UI, Arial, sans-serif" font-size="14" fill="#ffffff" font-weight="700">Get Free Audit</text>
  <rect x="70" y="402" width="1060" height="220" rx="12" fill="#f8fbff" stroke="#d8e5f4"/>
  <rect x="94" y="426" width="240" height="170" rx="10" fill="#ffffff" stroke="#d6e2f1"/>
  <rect x="352" y="426" width="240" height="170" rx="10" fill="#ffffff" stroke="#d6e2f1"/>
  <rect x="610" y="426" width="240" height="170" rx="10" fill="#ffffff" stroke="#d6e2f1"/>
  <rect x="868" y="426" width="240" height="170" rx="10" fill="#ffffff" stroke="#d6e2f1"/>
</svg>
