<svg xmlns="http://www.w3.org/2000/svg" width="1600" height="1000" viewBox="0 0 1600 1000" role="img" aria-label="After redesign mock screenshot for commercial HVAC installer website">
  <defs>
    <linearGradient id="bgAfter" x1="0" y1="0" x2="0" y2="1">
      <stop offset="0%" stop-color="#eaf2fd"/>
      <stop offset="100%" stop-color="#dde9f8"/>
    </linearGradient>
    <linearGradient id="heroGrad" x1="0" y1="0" x2="1" y2="0">
      <stop offset="0%" stop-color="#123e72"/>
      <stop offset="100%" stop-color="#1a5898"/>
    </linearGradient>
  </defs>
  <rect width="1600" height="1000" fill="url(#bgAfter)"/>
  <rect x="56" y="56" width="1488" height="888" rx="18" fill="#ffffff" stroke="#bfd4ef"/>
  <rect x="56" y="56" width="1488" height="66" rx="18" fill="#f0f5fc"/>
  <rect x="96" y="82" width="230" height="16" rx="8" fill="#2f5f97"/>
  <rect x="360" y="82" width="120" height="16" rx="8" fill="#8faed2"/>
  <rect x="500" y="82" width="120" height="16" rx="8" fill="#8faed2"/>
  <rect x="640" y="82" width="120" height="16" rx="8" fill="#8faed2"/>
  <rect x="780" y="82" width="120" height="16" rx="8" fill="#8faed2"/>
  <rect x="920" y="82" width="120" height="16" rx="8" fill="#8faed2"/>
  <rect x="1060" y="82" width="120" height="16" rx="8" fill="#8faed2"/>
  <rect x="1260" y="76" width="220" height="28" rx="14" fill="#1f5fa6"/>
  <text x="1328" y="95" font-family="Segoe UI, Arial, sans-serif" font-size="13" fill="#ffffff" font-weight="700">REQUEST QUOTE</text>

  <rect x="96" y="160" width="1408" height="300" rx="12" fill="url(#heroGrad)"/>
  <rect x="128" y="194" width="520" height="32" rx="10" fill="#ffffff"/>
  <rect x="128" y="240" width="720" height="16" rx="8" fill="#c9dbf2"/>
  <rect x="128" y="268" width="680" height="16" rx="8" fill="#c9dbf2"/>
  <rect x="128" y="296" width="620" height="16" rx="8" fill="#c9dbf2"/>
  <rect x="128" y="338" width="220" height="40" rx="10" fill="#ffffff"/>
  <text x="176" y="363" font-family="Segoe UI, Arial, sans-serif" font-size="16" fill="#1d4f86" font-weight="700">BOOK SITE AUDIT</text>
  <rect x="880" y="190" width="594" height="256" rx="12" fill="#2c5f9a" opacity="0.35"/>
  <rect x="912" y="222" width="240" height="56" rx="10" fill="#ffffff"/>
  <rect x="1170" y="222" width="272" height="56" rx="10" fill="#ffffff"/>
  <rect x="912" y="296" width="240" height="56" rx="10" fill="#ffffff"/>
  <rect x="1170" y="296" width="272" height="56" rx="10" fill="#ffffff"/>

  <rect x="96" y="500" width="446" height="180" rx="12" fill="#f4f9ff" stroke="#c9def6"/>
  <rect x="559" y="500" width="446" height="180" rx="12" fill="#f4f9ff" stroke="#c9def6"/>
  <rect x="1022" y="500" width="482" height="180" rx="12" fill="#f4f9ff" stroke="#c9def6"/>
  <rect x="128" y="536" width="210" height="14" rx="7" fill="#2c65a7"/>
  <rect x="128" y="560" width="362" height="12" rx="6" fill="#a8c4e5"/>
  <rect x="591" y="536" width="210" height="14" rx="7" fill="#2c65a7"/>
  <rect x="591" y="560" width="362" height="12" rx="6" fill="#a8c4e5"/>
  <rect x="1054" y="536" width="220" height="14" rx="7" fill="#2c65a7"/>
  <rect x="1054" y="560" width="394" height="12" rx="6" fill="#a8c4e5"/>

  <rect x="96" y="714" width="940" height="186" rx="12" fill="#f9fcff" stroke="#d0e1f5"/>
  <rect x="1060" y="714" width="444" height="186" rx="12" fill="#f9fcff" stroke="#d0e1f5"/>
  <rect x="128" y="748" width="260" height="14" rx="7" fill="#7ea8d8"/>
  <rect x="128" y="772" width="868" height="12" rx="6" fill="#c3d8f1"/>
  <rect x="128" y="794" width="824" height="12" rx="6" fill="#c3d8f1"/>
  <rect x="1092" y="748" width="220" height="14" rx="7" fill="#7ea8d8"/>
  <rect x="1092" y="772" width="372" height="12" rx="6" fill="#c3d8f1"/>
  <rect x="1092" y="794" width="340" height="12" rx="6" fill="#c3d8f1"/>
</svg>
