<svg xmlns="http://www.w3.org/2000/svg" width="1200" height="700" viewBox="0 0 1200 700" role="img" aria-label="Commercial HVAC installer website redesign placeholder">
  <rect width="1200" height="700" fill="#edf4fd"/>
  <rect x="40" y="40" width="1120" height="620" rx="18" fill="#ffffff" stroke="#cfe0f5"/>
  <rect x="40" y="40" width="1120" height="52" rx="18" fill="#e9f1fb"/>
  <rect x="70" y="60" width="220" height="14" rx="7" fill="#9ab6dd"/>
  <rect x="890" y="55" width="130" height="24" rx="8" fill="#0b5ed7"/>
  <text x="920" y="72" font-family="Segoe UI, Arial, sans-serif" font-size="12" fill="#ffffff">Quote</text>
  <text x="70" y="130" font-family="Segoe UI, Arial, sans-serif" font-size="20" fill="#163a68" font-weight="700">Before</text>
  <rect x="70" y="150" width="510" height="195" rx="12" fill="#f5f8fc" stroke="#d8e3f1"/>
  <rect x="92" y="176" width="460" height="15" rx="7" fill="#d4dfed"/>
  <rect x="92" y="201" width="400" height="12" rx="6" fill="#dde7f3"/>
  <rect x="92" y="222" width="420" height="12" rx="6" fill="#dde7f3"/>
  <rect x="92" y="243" width="360" height="12" rx="6" fill="#dde7f3"/>
  <rect x="92" y="275" width="145" height="24" rx="6" fill="#c1d0e4"/>
  <text x="625" y="130" font-family="Segoe UI, Arial, sans-serif" font-size="20" fill="#0b4fae" font-weight="700">After</text>
  <rect x="625" y="150" width="505" height="195" rx="12" fill="#edf5ff" stroke="#bdd2f3"/>
  <rect x="648" y="176" width="300" height="16" rx="8" fill="#0b5ed7"/>
  <rect x="648" y="201" width="455" height="12" rx="6" fill="#c6d8ef"/>
  <rect x="648" y="223" width="440" height="12" rx="6" fill="#c6d8ef"/>
  <rect x="648" y="246" width="210" height="30" rx="8" fill="#0b5ed7"/>
  <text x="678" y="266" font-family="Segoe UI, Arial, sans-serif" font-size="13" fill="#ffffff">Book Site Audit</text>
  <rect x="70" y="380" width="1060" height="240" rx="14" fill="#f7fbff" stroke="#d6e4f3"/>
  <rect x="94" y="408" width="500" height="186" rx="10" fill="#ffffff" stroke="#d3e1f1"/>
  <rect x="606" y="408" width="500" height="186" rx="10" fill="#ffffff" stroke="#d3e1f1"/>
  <rect x="114" y="428" width="160" height="16" rx="8" fill="#b6cbea"/>
  <rect x="114" y="456" width="460" height="12" rx="6" fill="#d6e3f2"/>
  <rect x="114" y="476" width="430" height="12" rx="6" fill="#d6e3f2"/>
  <rect x="626" y="428" width="180" height="16" rx="8" fill="#9dbbe3"/>
  <rect x="626" y="456" width="450" height="12" rx="6" fill="#d6e3f2"/>
  <rect x="626" y="476" width="430" height="12" rx="6" fill="#d6e3f2"/>
</svg>
