<svg xmlns="http://www.w3.org/2000/svg" width="1200" height="700" viewBox="0 0 1200 700" role="img" aria-label="Heat pump service website redesign placeholder">
  <defs>
    <linearGradient id="base" x1="0" y1="0" x2="0" y2="1">
      <stop offset="0%" stop-color="#f2f7fe"/>
      <stop offset="100%" stop-color="#e6effb"/>
    </linearGradient>
  </defs>
  <rect width="1200" height="700" fill="url(#base)"/>
  <rect x="40" y="40" width="1120" height="620" rx="18" fill="#ffffff" stroke="#cfdef1"/>
  <rect x="40" y="40" width="1120" height="48" rx="18" fill="#edf3fb"/>
  <rect x="68" y="58" width="190" height="14" rx="7" fill="#9ab6dd"/>
  <rect x="70" y="118" width="510" height="232" rx="12" fill="#f6f9fd" stroke="#d9e4f2"/>
  <text x="88" y="147" font-family="Segoe UI, Arial, sans-serif" font-size="19" fill="#163a68" font-weight="700">Before</text>
  <rect x="88" y="165" width="470" height="12" rx="6" fill="#d8e2ef"/>
  <rect x="88" y="186" width="450" height="12" rx="6" fill="#d8e2ef"/>
  <rect x="88" y="208" width="390" height="12" rx="6" fill="#d8e2ef"/>
  <rect x="88" y="235" width="120" height="24" rx="6" fill="#c2d0e3"/>
  <rect x="620" y="118" width="510" height="232" rx="12" fill="#eef5ff" stroke="#bed2f3"/>
  <text x="638" y="147" font-family="Segoe UI, Arial, sans-serif" font-size="19" fill="#0b4ea9" font-weight="700">After</text>
  <rect x="638" y="166" width="250" height="18" rx="9" fill="#0b5ed7"/>
  <rect x="638" y="194" width="465" height="12" rx="6" fill="#c7d9ef"/>
  <rect x="638" y="215" width="445" height="12" rx="6" fill="#c7d9ef"/>
  <rect x="638" y="241" width="180" height="32" rx="8" fill="#0b5ed7"/>
  <text x="664" y="261" font-family="Segoe UI, Arial, sans-serif" font-size="13" fill="#ffffff">Request Audit</text>
  <rect x="70" y="382" width="1060" height="240" rx="14" fill="#f8fbff" stroke="#d8e5f4"/>
  <rect x="96" y="410" width="320" height="184" rx="10" fill="#ffffff" stroke="#d3e1f1"/>
  <rect x="440" y="410" width="320" height="184" rx="10" fill="#ffffff" stroke="#d3e1f1"/>
  <rect x="784" y="410" width="320" height="184" rx="10" fill="#ffffff" stroke="#d3e1f1"/>
  <rect x="116" y="434" width="170" height="14" rx="7" fill="#a4c1e6"/>
  <rect x="116" y="460" width="280" height="11" rx="5" fill="#d5e2f1"/>
  <rect x="460" y="434" width="170" height="14" rx="7" fill="#a4c1e6"/>
  <rect x="460" y="460" width="280" height="11" rx="5" fill="#d5e2f1"/>
  <rect x="804" y="434" width="170" height="14" rx="7" fill="#a4c1e6"/>
  <rect x="804" y="460" width="280" height="11" rx="5" fill="#d5e2f1"/>
</svg>
